<?xml version="1.0" encoding="UTF-8"?>
<!DOCTYPE svg PUBLIC "-//W3C//DTD SVG 1.1//EN" "http://www.w3.org/Graphics/SVG/1.1/DTD/svg11.dtd">
<!-- Creator: CorelDRAW 2021 (64-Bit) -->
<svg xmlns="http://www.w3.org/2000/svg" xml:space="preserve" width="197.166mm" height="71.1531mm" version="1.1" style="shape-rendering:geometricPrecision; text-rendering:geometricPrecision; image-rendering:optimizeQuality; fill-rule:evenodd; clip-rule:evenodd"
viewBox="0 0 19715.48 7114.92"
 xmlns:xlink="http://www.w3.org/1999/xlink"
 xmlns:xodm="http://www.corel.com/coreldraw/odm/2003">
 <defs>
  <style type="text/css">
   <![CDATA[
    .fil2 {fill:#EA5B28}
    .fil3 {fill:#224772}
    .fil1 {fill:#EA5B28;fill-rule:nonzero}
    .fil4 {fill:#1199D1;fill-rule:nonzero}
    .fil0 {fill:#224772;fill-rule:nonzero}
   ]]>
  </style>
 </defs>
 <g id="Layer_x0020_1">
  <metadata id="CorelCorpID_0Corel-Layer"/>
  <g id="_2491081151040">
   <path class="fil0" d="M8358.23 6265.35l-922.28 0 0 -126.27c29.34,-2.55 61.52,-5.07 96.62,-7.66 35.06,-2.5 64.11,-7.65 87.09,-15.33 35.65,-11.47 62.15,-31.55 79.39,-60.22 17.22,-28.73 25.84,-66.04 25.84,-112l0 -970.11c0,-133.92 -31.65,-237.26 -94.93,-309.94 -63.3,-72.74 -140.39,-109.09 -231.13,-109.09 -67.79,0 -129.8,10.52 -186.05,31.57 -56.3,21.03 -106.11,46.9 -149.56,77.53 -42.24,29.36 -75.81,60.93 -100.71,94.67 -24.93,33.83 -43.17,60.97 -54.66,81.35l0 1084.93c0,43.4 8.9,79.12 26.8,107.19 17.82,28.04 44.62,49.68 80.36,65.01 26.8,12.74 55.8,22.35 87.03,28.73 31.25,6.38 63.5,10.83 96.62,13.38l0 126.27 -924.15 0 0 -126.27c29.35,-2.55 59.58,-5.07 90.89,-7.66 31.23,-2.5 58.37,-7.61 81.32,-15.29 35.7,-11.44 62.21,-31.47 79.39,-60.18 17.24,-28.65 25.83,-65.96 25.83,-111.81l0 -1163.9c0,-43.33 -9.27,-83.16 -27.71,-119.49 -18.56,-36.31 -44.35,-65.88 -77.51,-88.88 -24.27,-15.28 -52.93,-26.44 -86.14,-33.46 -33.15,-6.97 -68.9,-11.71 -107.15,-14.3l0 -126.28 627.67 -42.12 26.77 26.79 0 266.01 9.56 0c30.62,-30.61 68.85,-67.29 114.81,-110.09 45.94,-42.66 89.25,-77.48 130.12,-104.2 47.14,-30.64 103.32,-56.14 168.36,-76.55 65.08,-20.42 138.4,-30.61 220.09,-30.61 181.07,0 315.35,56.38 402.78,169.33 87.36,112.88 131.05,263.06 131.05,450.63l0 981.55c0,44.7 7.65,80.74 22.95,108.12 15.31,27.48 41.47,48.8 78.44,64.11 30.64,12.81 57.1,21.68 79.42,26.8 22.3,5.13 53.28,8.94 92.81,11.49l0 126.27z"/>
   <path class="fil0" d="M9709.13 5220.6c-108.45,31.98 -203.51,63.31 -285.09,93.97 -81.67,30.7 -157.58,69 -227.7,115.03 -63.84,43.5 -114.2,94.95 -151.2,154.36 -36.97,59.51 -55.48,130.15 -55.48,211.92 0,106.1 27.78,184.05 83.28,233.93 55.43,49.89 125.91,74.8 211.44,74.8 90.54,0 170.27,-22.03 239.15,-66.15 68.9,-44.1 126.93,-96.16 174.12,-156.26l11.49 -661.6zm667.81 1010.31c-60.02,21.7 -112.58,39.2 -157.87,52.6 -45.28,13.42 -96.62,20.1 -154.03,20.1 -99.5,0 -178.89,-23.3 -238.21,-69.81 -59.36,-46.62 -97.28,-114.49 -113.88,-203.79l-11.47 0c-82.93,91.78 -171.93,162.01 -266.94,210.49 -95.03,48.44 -209.55,72.69 -343.49,72.69 -141.56,0 -257.99,-43.37 -349.19,-130.14 -91.2,-86.7 -136.79,-200.27 -136.79,-340.57 0,-72.72 10.2,-137.78 30.59,-195.18 20.42,-57.42 51.01,-109.03 91.9,-154.98 31.84,-38.28 73.92,-72.36 126.28,-102.38 52.25,-29.95 101.36,-53.89 147.28,-71.75 57.44,-21.68 173.81,-61.85 349.24,-120.55 175.37,-58.65 293.7,-104.56 354.95,-137.78l0 -189.39c0,-16.61 -3.56,-48.47 -10.56,-95.67 -7.02,-47.19 -21.98,-91.87 -44.95,-133.95 -25.54,-47.19 -61.56,-88.34 -108.08,-123.42 -46.6,-35.07 -112.63,-52.62 -198.07,-52.62 -58.68,0 -113.19,9.9 -163.61,29.66 -50.41,19.78 -85.8,40.49 -106.16,62.2 0,25.53 6.02,63.16 18.2,112.88 12.1,49.74 18.12,95.67 18.12,137.73 0,44.69 -20.08,85.5 -60.28,122.49 -40.17,37.03 -95.98,55.49 -167.4,55.49 -63.82,0 -110.7,-22.64 -140.66,-67.94 -29.95,-45.25 -44.96,-95.96 -44.96,-152.1 0,-58.69 20.73,-114.81 62.2,-168.38 41.43,-53.6 95.38,-101.39 161.71,-143.57 57.39,-35.65 126.91,-65.95 208.51,-90.83 81.69,-24.92 161.38,-37.34 239.21,-37.34 107.11,0 200.61,7.36 280.29,22.03 79.71,14.67 152.17,46.24 217.23,94.73 65.06,47.17 114.47,111.27 148.28,192.28 33.75,81.03 50.71,185.32 50.71,312.87 0,182.42 -1.93,344.08 -5.72,485.03 -3.86,141 -5.77,295.02 -5.77,462.13 0,49.69 8.61,89.29 25.82,118.58 17.24,29.39 43.69,54.24 79.42,74.65 19.15,11.45 49.42,17.85 90.9,19.12 41.47,1.3 83.87,1.93 127.26,1.93l0 122.46z"/>
   <path class="fil0" d="M11448.46 6265.35l-920.4 0 0 -126.27c29.37,-2.55 60.59,-5.44 93.79,-8.61 33.13,-3.19 60.58,-8 82.3,-14.39 35.69,-11.46 62.47,-31.6 80.34,-60.3 17.85,-28.73 26.82,-66.05 26.82,-112.04l0 -2186.74c0,-45.94 -9.9,-89.04 -29.68,-129.2 -19.8,-40.23 -45.62,-71.86 -77.48,-94.83 -23.01,-15.28 -65.09,-29.34 -126.31,-42.08 -61.27,-12.81 -110.36,-20.47 -147.35,-23.03l0 -122.47 709.93 -42.03 26.8 28.64 0 2588.92c0,44.69 8.27,81.35 24.82,110.06 16.62,28.66 43.42,50.67 80.39,66 28.03,12.74 55.8,22.35 83.26,28.73 27.41,6.38 58.37,10.83 92.78,13.38l0 126.27z"/>
   <path class="fil0" d="M11542.25 6881.51c0,-63.78 17.51,-115.76 52.6,-155.91 35.08,-40.17 78.74,-60.29 131.02,-60.29 40.79,0 75.92,7.59 105.23,22.76 29.34,15.18 55.5,34.83 78.44,58.88 19.15,18.94 39.51,44.9 61.25,77.87 21.64,32.84 38.88,60.07 51.66,81.55 63.73,-34.33 139.97,-124.05 228.58,-269.19 88.64,-145.07 152.74,-272.4 192.28,-381.89 -121.17,-302.18 -230.84,-572.57 -329.02,-811.06 -98.21,-238.44 -200.9,-485.18 -307.97,-740.25 -24.25,-58.68 -65.08,-104.31 -122.48,-136.84 -57.42,-32.49 -114.82,-53.23 -172.16,-62.17l0 -126.28 861.33 0 0 133.95c-38.24,1.27 -84.18,9.24 -137.72,23.89 -53.6,14.65 -80.39,31.57 -80.39,50.67 0,7.67 2.9,20.36 8.6,38.24 5.77,17.83 12.49,36.31 20.12,55.46 48.31,126.16 122.08,308.1 221.37,545.82 99.2,237.74 176.17,428.01 230.9,570.72 57.43,-136.39 117.15,-277.5 179.08,-423.45 62,-145.98 131.23,-318.36 207.87,-517.19 8.92,-24.21 21.72,-57.69 38.34,-100.4 16.55,-42.71 24.88,-79.3 24.88,-109.92 0,-33.18 -29.02,-64.09 -87.04,-92.71 -58.07,-28.69 -113.25,-46.24 -165.52,-52.6l0 -122.46 700.69 0 0 118.62c-38.27,6.43 -88.68,28.41 -151.19,66 -62.5,37.65 -109.06,90.93 -139.68,159.75 -151.8,352.09 -286.69,672.91 -404.69,962.5 -117.99,289.57 -207.58,502.65 -268.85,639.12 -80.37,178.58 -152.12,317.97 -215.23,418.14 -63.18,100.12 -124.72,178.87 -184.67,236.31 -58.66,53.57 -111.95,89.58 -159.8,108.1 -47.82,18.44 -97.25,27.69 -148.23,27.69 -99.51,0 -177.68,-23.61 -234.42,-70.79 -56.8,-47.17 -85.17,-101.39 -85.17,-162.62z"/>
   <path class="fil0" d="M14854.49 6183.05c-82.91,34.49 -161.41,63.49 -235.38,87.07 -73.97,23.6 -164.54,35.4 -271.71,35.4 -158.19,0 -269.51,-39.85 -333.93,-119.55 -64.35,-79.76 -96.6,-192.3 -96.6,-337.72l0 -1278.19 -340.57 0 0 -183.71 348.25 0 0 -587.45 348.23 0 0 587.45 541.53 0 0 183.71 -537.69 0 0 1054.29c0,79.14 2.84,145.12 8.61,198.01 5.7,52.98 19.41,99.25 41.17,138.77 20.35,37.02 50.99,65.06 91.83,84.16 40.79,19.19 95.64,28.73 164.5,28.73 31.91,0 78.78,-2.84 140.66,-8.58 61.85,-5.8 105.58,-13.09 131.09,-22.06l0 139.68z"/>
   <path class="fil0" d="M15881.99 6265.35l-910.81 0 0 -126.27c29.34,-2.55 59.57,-5.07 90.89,-7.66 31.27,-2.5 58.38,-7.61 81.32,-15.29 35.72,-11.44 62.22,-31.47 79.39,-60.18 17.24,-28.65 25.85,-65.96 25.85,-111.81l0 -1163.9c0,-40.83 -9.25,-78.12 -27.73,-111.85 -18.53,-33.73 -44.36,-62.07 -77.51,-85.08 -24.26,-15.21 -59.32,-28.27 -105.25,-39.13 -45.92,-10.81 -88,-17.48 -126.28,-20.07l0 -126.28 665.9 -42.12 26.78 26.79 0 1538.41c0,44.69 8.53,81.66 25.63,111.05 17.17,29.33 44.06,51.02 80.78,65.01 27.89,11.49 55.1,20.76 81.71,27.78 26.62,7.01 56.42,11.78 89.36,14.33l0 126.27z"/>
   <path class="fil0" d="M16987.99 6315.13c-273.03,0 -486.69,-90.6 -641.06,-271.77 -154.32,-181.07 -231.49,-424.08 -231.49,-729.03 0,-132.63 20.71,-256.68 62.18,-372.14 41.47,-115.45 101.75,-220.37 180.83,-314.76 75.26,-90.59 169.65,-163.61 283.21,-219.1 113.47,-55.5 237.26,-83.25 371.19,-83.25 184.97,0 335.5,44.35 451.59,133 116.08,88.63 174.1,209.51 174.1,362.59 0,63.79 -15.3,120.28 -45.91,169.33 -30.62,49.15 -81.03,73.72 -151.12,73.72 -75.33,0 -133.67,-19.12 -175.14,-57.21 -41.46,-38.24 -62.18,-80.8 -62.18,-127.82 0,-57.23 7.68,-116.04 22.97,-176.44 15.31,-60.41 24.23,-104.55 26.77,-132.57 -22.87,-39.43 -56.96,-65.77 -102.09,-79.14 -45.19,-13.34 -93.88,-20.04 -145.99,-20.04 -61.07,0 -119.28,13.11 -174.65,39.23 -55.35,26.16 -109.13,74.32 -161.23,144.49 -47.12,63.84 -85.32,149.89 -114.54,258.31 -29.27,108.4 -43.92,237.94 -43.92,388.43 0,237.3 52.57,430.85 157.62,580.75 105.11,149.87 242.98,224.81 413.64,224.81 123.53,0 227.03,-30.14 310.48,-90.41 83.39,-60.3 160.78,-150.66 232.11,-271.28l122.3 80.42c-84.18,150.55 -195.2,269.8 -332.97,357.79 -137.77,88.07 -280.01,132.08 -426.69,132.08z"/>
   <path class="fil0" d="M19014.34 5220.6c-108.44,31.98 -203.52,63.31 -285.11,93.97 -81.62,30.7 -157.54,69 -227.67,115.03 -63.82,43.5 -114.2,94.95 -151.2,154.36 -37.01,59.51 -55.5,130.15 -55.5,211.92 0,106.1 27.75,184.05 83.28,233.93 55.48,49.89 125.93,74.8 211.43,74.8 90.53,0 170.28,-22.03 239.18,-66.15 68.92,-44.1 126.91,-96.16 174.1,-156.26l11.5 -661.6zm667.8 1010.31c-60,21.7 -112.61,39.2 -157.84,52.6 -45.31,13.42 -96.63,20.1 -154.04,20.1 -99.52,0 -178.94,-23.3 -238.23,-69.81 -59.32,-46.62 -97.26,-114.49 -113.9,-203.79l-11.45 0c-82.94,91.78 -171.91,162.01 -266.92,210.49 -95.05,48.44 -209.54,72.69 -343.49,72.69 -141.58,0 -258.02,-43.37 -349.21,-130.14 -91.2,-86.7 -136.79,-200.27 -136.79,-340.57 0,-72.72 10.19,-137.78 30.63,-195.18 20.35,-57.42 50.99,-109.03 91.85,-154.98 31.84,-38.28 73.92,-72.36 126.26,-102.38 52.28,-29.95 101.41,-53.89 147.33,-71.75 57.41,-21.68 173.79,-61.85 349.21,-120.55 175.42,-58.65 293.71,-104.56 354.93,-137.78l0 -189.39c0,-16.61 -3.51,-48.47 -10.56,-95.67 -6.95,-47.19 -21.95,-91.87 -44.9,-133.95 -25.54,-47.19 -61.58,-88.34 -108.1,-123.42 -46.58,-35.07 -112.63,-52.62 -198.04,-52.62 -58.71,0 -113.25,9.9 -163.64,29.66 -50.42,19.78 -85.8,40.49 -106.16,62.2 0,25.53 6.04,63.16 18.17,112.88 12.13,49.74 18.17,95.67 18.17,137.73 0,44.69 -20.1,85.5 -60.25,122.49 -40.25,37.03 -96.03,55.49 -167.45,55.49 -63.8,0 -110.7,-22.64 -140.66,-67.94 -29.98,-45.25 -44.94,-95.96 -44.94,-152.1 0,-58.69 20.71,-114.81 62.16,-168.38 41.47,-53.6 95.39,-101.39 161.7,-143.57 57.41,-35.65 126.92,-65.95 208.58,-90.83 81.64,-24.92 161.32,-37.34 239.15,-37.34 107.18,0 200.6,7.36 280.33,22.03 79.73,14.67 152.12,46.24 217.2,94.73 65.09,47.17 114.48,111.27 148.31,192.28 33.75,81.03 50.71,185.32 50.71,312.87 0,182.42 -1.95,344.08 -5.76,485.03 -3.84,141 -5.73,295.02 -5.73,462.13 0,49.69 8.58,89.29 25.8,118.58 17.26,29.39 43.71,54.24 79.42,74.65 19.14,11.45 49.44,17.85 90.92,19.12 41.45,1.3 83.87,1.93 127.24,1.93l0 122.46z"/>
   <path class="fil1" d="M13290.6 7067.38l-302.3 0 0 -30.74c6.56,-0.52 16.15,-1.29 28.77,-2.37 12.61,-1.04 21.29,-2.63 26.01,-4.72 9.72,-3.95 16.44,-9.15 20.12,-15.58 3.65,-6.43 5.5,-14.64 5.5,-24.64l0 -192.73 -238.85 0 0 188.42c0,8.9 1.9,16.94 5.72,24.02 3.82,7.12 10.33,12.61 19.53,16.56 4.99,2.12 13.51,4.33 25.61,6.7 12.09,2.36 21.94,3.82 29.55,4.34l0 30.74 -302.29 0 0 -30.74c6.56,-0.28 16.23,-1.13 28.97,-2.57 12.75,-1.45 22.01,-3.22 27.8,-5.34 9.45,-3.4 16.02,-8.58 19.69,-15.55 3.68,-6.98 5.52,-15.17 5.52,-24.64l0 -395.7c0,-9.19 -1.64,-16.94 -4.91,-23.25 -3.29,-6.32 -10.06,-11.84 -20.3,-16.56 -7.63,-3.4 -17.6,-6.49 -29.95,-9.27 -12.36,-2.74 -21.3,-4.38 -26.82,-4.92l0 -30.73 302.29 0 0 30.73c-8.15,0.54 -17.88,1.84 -29.16,3.95 -11.31,2.11 -19.98,4.09 -26,5.9 -10.24,3.41 -17.03,8.86 -20.33,16.38 -3.27,7.49 -4.92,15.42 -4.92,23.82l0 167.13 238.85 0 0 -163.18c0,-9.19 -1.7,-16.94 -5.14,-23.25 -3.4,-6.32 -10.24,-11.84 -20.48,-16.56 -6.84,-3.13 -15.96,-6.11 -27.39,-8.86 -11.42,-2.74 -20.55,-4.54 -27.39,-5.33l0 -30.73 302.3 0 0 30.73c-8.43,0.54 -17.9,1.66 -28.39,3.36 -10.49,1.7 -19.96,3.88 -28.39,6.49 -9.97,3.41 -16.67,8.82 -20.07,16.18 -3.43,7.35 -5.14,15.37 -5.14,24.02l0 396.13c0,9.45 1.71,17.46 5.14,24.02 3.4,6.57 10.1,12.11 20.07,16.56 6.32,2.63 15.44,5 27.41,7.09 11.95,2.11 21.76,3.43 29.37,3.95l0 30.74z"/>
   <path class="fil1" d="M13638.22 7082.73c-41,0 -79.35,-6.65 -115.09,-19.91 -35.72,-13.28 -66.88,-32.57 -93.41,-57.81 -26.01,-24.74 -46.49,-55.33 -61.48,-91.75 -14.97,-36.46 -22.46,-76.52 -22.46,-120.16 0,-43.45 7.54,-83.62 22.67,-120.58 15.1,-36.98 36.33,-68.99 63.65,-96.1 26.82,-26.57 59,-47.17 96.55,-61.77 37.59,-14.6 77.78,-21.89 120.6,-21.89 31.02,0 59.25,3.81 84.75,11.42 25.48,7.63 47.04,16.16 64.64,25.61l24.43 -21.66 34.29 0 3.57 204.15 -34.7 0c-19.69,-62.4 -43.31,-108.22 -70.88,-137.45 -27.54,-29.23 -61.13,-43.83 -100.75,-43.83 -49.35,0 -86.86,21.78 -112.58,65.34 -25.71,43.53 -38.57,104.65 -38.57,183.35 0,44.49 4.38,82.46 13.18,113.87 8.78,31.46 20.28,56.77 34.44,75.99 15.22,20.01 33.21,34.68 53.94,44.04 20.73,9.33 43.69,14.01 68.9,14.01 36.75,0 69.49,-9.99 98.23,-29.98 28.73,-19.96 54.91,-50.19 78.53,-90.64l33.91 20.51c-11.31,23.1 -24.19,43.81 -38.63,62.07 -14.47,18.28 -31.16,33.95 -50.07,47.1 -20.76,14.45 -43.67,25.76 -68.77,33.88 -25.1,8.15 -54.73,12.21 -88.88,12.21z"/>
   <path class="fil1" d="M14156.87 7082.73c-34.15,0 -66.01,-4.26 -95.57,-12.78 -29.57,-8.53 -54.57,-18.6 -75.1,-30.16l-27.18 27.59 -33.52 0 -5.11 -202.19 33.9 0c7.61,19.23 17.35,39.51 29.16,60.84 11.84,21.35 25.48,40.43 40.99,57.3 16.04,17.62 33.98,31.97 53.8,43.03 19.85,11.06 43.04,16.58 69.59,16.58 35.72,0 63.13,-8.72 82.18,-26.23 19.05,-17.47 28.55,-39.5 28.55,-66.06 0,-21.83 -8.06,-40.18 -24.24,-55.03 -16.14,-14.85 -41.17,-27.71 -75.07,-38.52 -22.08,-7.13 -42.38,-13.74 -60.89,-19.8 -18.55,-6.09 -35.95,-12.25 -52.23,-18.62 -37.58,-14.99 -65.5,-36.43 -83.75,-64.32 -18.27,-27.88 -27.41,-59.07 -27.41,-93.53 0,-21.85 4.72,-42.8 14.19,-62.93 9.44,-20.14 23.25,-38.21 41.4,-54.27 17.32,-14.99 39.54,-27.23 66.61,-36.7 27.07,-9.47 56.5,-14.19 88.29,-14.19 30.98,0 60.04,4.31 87.09,12.98 27.05,8.68 48.35,17.36 63.86,26.03l24.05 -23.64 34.3 0 3.15 190.75 -33.91 0c-7.88,-20.55 -17.16,-41.56 -27.77,-63.02 -10.65,-21.48 -21.89,-39.31 -33.72,-53.54 -12.88,-15.27 -27.71,-27.46 -44.54,-36.54 -16.82,-9.07 -36.52,-13.63 -59.11,-13.63 -28.39,0 -51.6,8.04 -69.58,24.1 -18.01,16.05 -26.98,35.92 -26.98,59.61 0,22.36 7.81,40.64 23.44,54.86 15.64,14.22 40.01,26.73 73.12,37.49 19.44,6.6 39.27,13.18 59.5,19.74 20.26,6.58 38.24,12.93 54,18.94 38.11,14.76 67.06,35.08 86.91,61 19.85,25.94 29.78,58.09 29.78,96.49 0,24.21 -5.66,47.63 -16.95,70.26 -11.33,22.62 -26.54,41.44 -45.73,56.43 -21.03,16.58 -45.33,29.34 -72.93,38.29 -27.59,8.92 -59.77,13.39 -96.55,13.39z"/>
   <path class="fil1" d="M4858.1 4839.66c-378.8,197.87 -751.54,405.01 -1092.09,520.46l-782.61 -1855.51c286.49,-458.1 611.91,-838.26 737.42,-989.58l1137.28 2324.62z"/>
   <path class="fil1" d="M5521.79 6206.26l-1404.97 0 -114.54 -300.2c386.47,-220.83 732.6,-452.7 1037.8,-680.07l481.71 980.28z"/>
   <path class="fil0" d="M2188.03 2515.04l1532.8 0c0,0 -1943.71,2323.87 -1458.41,3090.14 485.37,766.47 3259.37,-969.83 4583.5,-1912 0,0 -3121.57,2700.17 -4790.05,2855.02 -2178.03,202.1 -391.37,-3241.25 132.16,-4033.17z"/>
   <polygon class="fil1" points="14547.76,6901.93 19715.48,6901.93 19715.48,6794.32 14547.76,6794.32 "/>
   <polygon class="fil1" points="3802.66,6901.93 11305.2,6901.93 11305.2,6794.32 3802.66,6794.32 "/>
   <path class="fil2" d="M4348.59 1989.3c-49.2,-22.68 -98.16,-45.22 -185.09,-85.29 92.94,-89.07 172.61,-165.35 256.7,-246.03 166.63,108.61 330.75,179.1 527.99,61.18 123.97,367.46 243.42,721.87 382.14,1133.08 -179.33,-46.19 -320.77,-83.59 -462.7,-118.42 -21.57,-5.33 -62.25,-4.41 -65.86,4.66 -9.27,24.39 -14.13,61.22 -1.61,81.19 58.02,93.12 139.72,135.09 255.49,123.57 49.58,-4.88 138.25,19.53 147.33,49.41 15.18,50.22 -2.13,128.17 -35.17,172.34 -134.23,178.17 -279.29,347.65 -437.67,541.92 -36.95,-55.8 -69.08,-94.1 -90.33,-137.57 -123.31,-252.96 -244.85,-506.78 -365.34,-760.96 -39.35,-83.1 -104.29,-159.94 -42.64,-265.58 10.35,-17.69 -40.55,-87.39 -77.27,-111.24 -37.24,-24.26 -91.85,-21.56 -138.9,-29.87 -82.53,-14.51 -185.42,-8.75 -180.28,-132.53 5,-121.53 96.03,-171.6 200.22,-194.42 51.46,-11.38 107.27,-1.44 160.14,-7.73 50.03,-6.22 99.18,-21.14 148.65,-32.15 1.26,-15.19 2.72,-30.41 4.19,-45.56z"/>
   <path class="fil2" d="M5713.9 3618.84c-12.33,-23.89 -46.89,-74.58 -65.4,-130.78 -187.8,-570.05 -377.01,-1139.97 -554.75,-1713.24 -22.59,-72.96 4.07,-171.93 37.48,-245.73 10.44,-23.05 119.62,-14.86 178.75,-0.5 175.13,43.01 349.01,91.76 520.14,148.19 47.89,15.9 103.5,58.32 123.26,102.96 184.41,417.18 252.54,857.81 253.63,1325.15 -174.85,-249.95 -183.16,-254.11 -313.71,18.01 -76.22,158.94 -121.56,333.13 -179.4,495.93z"/>
   <path class="fil3" d="M58.01 2772.86c4.28,52.37 14.27,105.05 11.87,157.09 -12.77,272.62 105.13,458.9 355.46,569.44 121.44,53.62 241.15,115.57 352.43,188.1 310.5,202.17 363.46,369.26 236.17,719.65 -105.48,290.42 -72.3,555.25 137.94,788.53 132.68,147.1 269.13,291.01 403.3,436.67 16.05,17.49 28.53,37.88 51.57,68.58 -943.43,-336.19 -1847.13,-2026.79 -1548.74,-2928.05z"/>
   <path class="fil3" d="M1782.16 206.1c18.47,138.07 -26.7,213.94 -173.72,261.49 -237.31,76.85 -387.2,260.81 -490,479.13 9.25,12.55 18.54,25.09 27.67,37.62 149.33,-88.72 298.77,-177.35 466.99,-277.22 27.91,314.47 -124.74,502.2 -347.2,641.72 -272.95,171.51 -546.19,342.33 -721.94,621.8 -82.97,131.89 -139.87,280.22 -222.81,449.71 -24.53,-112.77 -43.11,-197.93 -61.61,-283.06 -18.09,-1.82 -36.1,-3.79 -54.16,-5.59 -41.86,154.87 -83.81,309.59 -125.64,464.27 -48.93,-776.81 697.81,-1996.46 1702.42,-2389.86z"/>
   <path class="fil2" d="M4296.34 1400.01c22.94,64.36 42.29,118.58 76.85,216.15 -131.84,55.68 -266.1,106.06 -393.52,169.9 -44.16,22.17 -106.49,84.73 -100.41,117.65 35.43,191.66 -110.08,273.37 -209.76,392.49 -113.85,-134.68 -223.13,-264.03 -332.29,-393.29 -11.01,8.25 -22.12,16.63 -33.04,25.07 67.83,113.57 135.57,227.23 203.51,340.72 -15.78,16.04 -31.56,32.02 -47.37,47.83 -45.8,-33.38 -105.89,-57.55 -135.34,-101.69 -162.09,-244.77 -272.89,-265.28 -450.29,-40.6 -129.18,163.86 -280.42,129.23 -439.62,121.96 -22.82,-239.39 9.43,-280.87 216.39,-315.07 45.59,-7.59 87.94,-34.32 174.75,-69.77 -79.3,-39.37 -118.04,-52.05 -148.25,-75.73 -17.25,-13.42 -31.13,-46.81 -27.2,-67.23 3.73,-18.14 36.18,-46.19 52.57,-44.12 193.34,24.57 296.98,-126.59 425.08,-220.8 95.22,-70.26 185.31,-109.44 305.86,-106.11 283.56,7.86 567.53,2.63 862.08,2.63z"/>
   <path class="fil2" d="M3034.66 1082.94c2.55,-36.18 -7.83,-81.68 9.97,-107.66 112.18,-162.25 222.57,-327.34 350.32,-477.35 75.85,-88.86 203.2,-46.75 248.3,53.51 25.05,55.41 74.35,137.88 115.47,139.51 88.77,3.7 188.55,-171.85 162.39,-257.18 -11.93,-38.51 -35.23,-73.8 -29.27,-127.81 192.72,234.57 385.63,469.17 574.63,699.41 -54.05,78.13 -96.28,145.31 -145.29,207.44 -18.95,24.14 -52.47,51.19 -79.64,51.65 -218.25,4.2 -436.69,2.43 -667.6,2.43 19.03,-99.05 34.88,-180.92 50.49,-262.29 -100.03,-61.5 -155.4,-27.91 -190.85,65 -18.89,48.96 -31.25,109.47 -67.49,140.58 -26.6,22.6 -98.39,23.65 -130.09,3.43 -57.96,-37.08 -101.07,-97.17 -150.38,-147.69 -16.96,5.6 -34.13,11.26 -50.96,17.03z"/>
   <path class="fil2" d="M5095.25 1129.22c-120.67,-172.56 -289.87,-206.63 -482.14,-182.98 -29.5,3.7 -73.06,-19.33 -93.87,-43.9 -240.9,-285.01 -478.81,-572.66 -717.22,-859.96 -9.66,-11.73 -14.63,-27.35 -22.36,-42.36 407.65,-3.43 1253.1,459.18 1607.65,920.78 -92.67,66.27 -185.05,132.21 -292.05,208.42z"/>
   <path class="fil3" d="M1979.07 898.98c-120.11,-121.94 -114.17,-336.13 23.64,-485.35 289.13,-313.35 602.11,-421.56 1143.41,-390.95 -209.85,226.8 -394.11,457.05 -712.41,551.32 -164.15,48.42 -296.05,207.06 -454.64,324.98z"/>
   <path class="fil2" d="M5491.85 1005.05c122.01,182.46 237.66,355.15 353.35,527.69 -8.41,11.24 -16.58,22.4 -24.62,33.61 -206.24,-57.29 -413.86,-109.77 -617.61,-174.67 -74.62,-23.6 -69.37,-151.56 5.53,-204.17 82.09,-57.75 168.74,-109.18 283.34,-182.46z"/>
   <path class="fil2" d="M2832.28 1087.48c10.13,52.78 19.92,105.86 30.39,158.55 12.94,65.9 29.9,131.23 38.54,197.63 4.52,35.36 4.72,98.03 -9.88,103.39 -44.6,16.53 -97.24,11.36 -146.63,14.63 -1.32,-36.59 -7.13,-73.56 -2.38,-109.48 8.51,-66.47 25.46,-132.09 34.65,-198.7 7.36,-54.05 8.45,-109.02 12.24,-163.75 14.4,-0.7 28.82,-1.54 43.08,-2.27z"/>
   <path class="fil2" d="M2511.64 746.25c62.97,-36.36 125.94,-72.61 189.03,-108.96 13.26,12.77 26.61,25.82 40.08,38.72 -21.37,35.27 -34.86,84.85 -66.34,102.64 -39.61,22.3 -93.93,18.71 -142.01,26.39 -7,-19.53 -13.79,-39.15 -20.76,-58.79z"/>
   <polygon class="fil4" points="15504.17,4158.16 15156.12,4158.16 15156.12,3792.31 14790.26,3792.31 14790.26,3444.3 15156.12,3444.3 15156.12,3078.44 15504.17,3078.44 15504.17,3444.3 15870.01,3444.3 15870.01,3792.31 15504.17,3792.31 "/>
  </g>
 </g>
</svg>
